<svg width="182" height="50" fill="none" xmlns="http://www.w3.org/2000/svg"><g clip-path="url(#clip0_147_1001)"><path d="M21.069 49.923v-5.07l-2.566 4.248h-.772l-2.524-4.261v5.083H13.58v-7.634h1.857l2.725 4.76 2.842-4.76h1.667l.031 7.634H21.07zm9.421-6.917a3.115 3.115 0 01.909 2.433v4.484H29.7v-.908a2.09 2.09 0 01-.935.763 4.088 4.088 0 01-2.96-.027 2.325 2.325 0 01-.99-.813 2.078 2.078 0 01-.35-1.175 2.015 2.015 0 01.763-1.648c.508-.417 1.312-.622 2.406-.622H29.6v-.154a1.56 1.56 0 00-.454-1.225 2.063 2.063 0 00-1.42-.454c-.43 0-.855.068-1.263.2a3.196 3.196 0 00-1.049.558l-.7-1.298c.435-.32.924-.557 1.445-.699a6.482 6.482 0 011.757-.213 3.707 3.707 0 012.575.798zm-1.625 5.392a1.66 1.66 0 00.736-.876v-.885h-1.817c-1.026 0-1.539.336-1.539 1.012a.906.906 0 00.381.772c.318.206.694.305 1.072.281.41.005.812-.1 1.167-.304zm10.58-4.598h-4.087v6.123h-1.757v-7.634h5.844V43.8zm6.711-.794a3.113 3.113 0 01.908 2.433v4.484h-1.698v-.908c-.23.34-.555.606-.935.763a3.635 3.635 0 01-1.462.263 3.576 3.576 0 01-1.499-.29 2.324 2.324 0 01-.99-.813 2.047 2.047 0 01-.35-1.175 2.017 2.017 0 01.763-1.648c.509-.417 1.308-.622 2.402-.622h1.971v-.154a1.56 1.56 0 00-.454-1.225 2.08 2.08 0 00-1.421-.454 4.15 4.15 0 00-1.263.2c-.38.119-.737.308-1.048.558l-.7-1.298a4.4 4.4 0 011.44-.7 6.541 6.541 0 011.77-.212 3.724 3.724 0 012.566.798zm-1.625 5.392c.338-.198.598-.508.735-.876v-.885H43.45c-1.031 0-1.544.336-1.544 1.012a.906.906 0 00.386.772c.318.206.693.305 1.072.281.409.004.812-.1 1.167-.304zm10.284-1.811c.262.297.403.68.395 1.076a1.82 1.82 0 01-.454 1.235 3.088 3.088 0 01-1.299.83 5.504 5.504 0 01-1.884.304c-.581 0-1.16-.07-1.726-.209a6.134 6.134 0 01-1.525-.59l.513-1.33a4.93 4.93 0 001.258.486 5.83 5.83 0 001.398.173c.483.025.966-.07 1.403-.277a.853.853 0 00.509-.763.759.759 0 00-.395-.685 2.08 2.08 0 00-1.104-.245h-1.503v-1.207h1.363c.363.021.726-.057 1.048-.227a.704.704 0 00.252-1.036.74.74 0 00-.324-.262 2.725 2.725 0 00-1.258-.24 6.048 6.048 0 00-2.407.553l-.454-1.312a7.136 7.136 0 013.024-.698 5.45 5.45 0 011.74.263c.458.143.873.399 1.207.744.288.29.45.681.455 1.09.005.36-.118.71-.346.989a2.197 2.197 0 01-.94.68 2.18 2.18 0 011.054.658zm2.248-4.297h1.784v5.019l4.21-5.02h1.625v7.634h-1.784V44.88l-4.196 5.043h-1.639v-7.634zm10.017 0h1.78v3.094h3.84V42.29h1.767v7.634h-1.78v-3.01h-3.841v3.01h-1.78l.013-7.634zm15.079 7.21a3.632 3.632 0 01-1.471-1.393 4.119 4.119 0 010-4.03c.354-.58.86-1.05 1.462-1.362a4.425 4.425 0 012.134-.5 4.12 4.12 0 011.989.445c.553.293 1 .752 1.276 1.312l-1.363.799a2.193 2.193 0 00-.821-.794 2.221 2.221 0 00-1.077-.264 2.272 2.272 0 00-1.657.65 2.627 2.627 0 000 3.462 2.407 2.407 0 002.725.386 2.17 2.17 0 00.817-.794l1.362.803a3.109 3.109 0 01-1.29 1.316c-.605.314-1.28.47-1.961.454a4.426 4.426 0 01-2.125-.49zm12.359-6.494a3.113 3.113 0 01.908 2.432v4.484h-1.68v-.907c-.23.339-.556.604-.935.762a3.635 3.635 0 01-1.462.263 3.575 3.575 0 01-1.499-.29 2.324 2.324 0 01-.99-.813 2.046 2.046 0 01-.35-1.175 2.015 2.015 0 01.764-1.648c.508-.417 1.308-.621 2.402-.621h1.97v-.155a1.56 1.56 0 00-.454-1.225 2.08 2.08 0 00-1.42-.454 4.149 4.149 0 00-1.263.2 3.21 3.21 0 00-1.05.558l-.698-1.298c.433-.32.92-.556 1.439-.699a6.543 6.543 0 011.784-.24 3.724 3.724 0 012.534.826zm-1.625 5.391c.339-.198.599-.508.735-.876v-.885h-1.816c-1.03 0-1.544.336-1.544 1.012a.906.906 0 00.386.772 1.76 1.76 0 001.072.281c.409.004.811-.1 1.167-.304zm4.731-6.107h1.785v3.094h3.837V42.29h1.784v7.634h-1.784v-3.01h-3.837v3.01h-1.785V42.29zm15.834 1.51h-2.665v6.123h-1.78V43.8h-2.684v-1.51h7.133l-.004 1.51zm8.073 2.865h-5.975c.087.534.38 1.013.817 1.334.482.337 1.06.509 1.648.49a2.798 2.798 0 002.071-.826l.953 1.098a3.18 3.18 0 01-1.298.908 4.732 4.732 0 01-1.767.313 4.661 4.661 0 01-2.211-.499 3.575 3.575 0 01-1.476-1.389 3.907 3.907 0 01-.522-2.02 3.95 3.95 0 01.509-2 3.553 3.553 0 011.403-1.39 4.086 4.086 0 012.025-.499 4.003 4.003 0 011.989.49 3.473 3.473 0 011.362 1.385 4.2 4.2 0 01.49 2.06c.009.14 0 .318-.018.545zm-5.29-2.533a2.12 2.12 0 00-.717 1.362h4.35a2.084 2.084 0 00-2.157-1.852 2.158 2.158 0 00-1.476.49zm11.806 5.791l-1.953-2.637-1.952 2.637h-1.966l2.965-3.863-2.838-3.748h1.984l1.866 2.491 1.894-2.514h1.925l-2.856 3.722 2.983 3.889-2.052.023zm3.301-7.633h1.78v3.094h3.837V42.29h1.784v7.634h-1.784v-3.01h-3.837v3.01h-1.78V42.29zm9.799 0h1.784v5.019l4.21-5.02h1.625v7.634h-1.784V44.88l-4.191 5.043h-1.644v-7.634zm13.181 4.56h-1.384v3.073h-1.78v-7.634h1.78v3.095h1.439l2.27-3.077h1.912L155.8 45.97l2.951 3.948h-2.098l-2.325-3.068zm5.649-4.56h1.785v5.019l4.209-5.02h1.625v7.634h-1.784V44.88l-4.191 5.043h-1.644v-7.634zM65.436 12.173h6.679v1.983c1.594-1.361 4.54-2.369 7.596-2.369 5.322 0 8.9 2.27 8.9 8.514v15.326h-6.92V20.252c0-3.821-1.258-5.419-5.126-5.419a12.45 12.45 0 00-4.16.727v20.069h-6.97V12.172zm33.809 22.115v1.402h-6.68V0h6.92v13.543a11.609 11.609 0 016.435-1.693c6.357 0 10.548 4.252 10.548 12.086 0 7.692-4.064 12.14-10.548 12.14-2.561 0-4.836-.53-6.675-1.788zm10.208-10.234c0-7.012-2.03-9.431-6.289-9.431-1.252.007-2.495.22-3.678.63v17.533c1.2.41 2.459.623 3.728.63 4.159 0 6.239-2.273 6.239-9.362zM54.529 13.58v-1.403h6.675v23.45h-6.916v-1.298a11.66 11.66 0 01-6.434 1.688c-6.357 0-10.548-4.252-10.548-12.086 0-7.692 4.087-12.14 10.548-12.14 2.547.01 4.818.531 6.675 1.788zM44.32 23.83c0 7.012 2.03 9.431 6.29 9.431a11.54 11.54 0 003.677-.626V15.081a11.72 11.72 0 00-3.728-.63c-4.159 0-6.239 2.273-6.239 9.38zm88.663 12.023c-8.174 0-13.84-2.468-13.84-11.995 0-8.2 5.081-12.058 11.565-12.058 7.015 0 11.224 3.726 11.224 11.654a11.694 11.694 0 01-.145 1.743h-15.82c.146 6.912 2.13 8.365 8.419 8.365h6.07v2.269l-7.473.022zm-7.016-12.848h9.481c-.145-6.576-.908-8.895-4.69-8.895-3.583 0-4.695 2.27-4.791 8.895zm18.753 12.849V33.55h7.338c4.936 0 6.579-1.112 6.579-3.286a2.262 2.262 0 00-1.307-2.324c-1.063-.58-2.611-1.017-4.541-1.498-2.42-.63-4.74-1.257-6.048-2.614a6.029 6.029 0 01-1.789-4.538c0-6 5.367-7.353 10.157-7.353 2.484 0 4.963.226 7.406.677v.885c-1.984-.29-4.114.662-6.098.662-3.919 0-5.372 1.067-5.417 3.05 0 1.303.481 1.979 1.403 2.465 1.063.58 2.516.966 4.255 1.402 2.37.626 4.404 1.207 5.807 2.224 1.549 1.112 2.27 2.61 2.225 5.128-.054 5.65-5.376 7.425-11.956 7.425h-8.014z" fill="#000"/><path d="M155.359 11.93H168.5V5.446h6.97v6.486h5.703v2.224h-5.703v15.961c0 2.61.967 3.381 3.383 3.381a11.78 11.78 0 002.325-.29v2.083c-1.719.363-3.471.54-5.227.531-4.259 0-7.451-1.361-7.451-6.808V14.155h-12.823l-.318-2.224zM16.315 7.198h16.378A7.196 7.196 0 0025.49 0H9.336a9.343 9.343 0 00-6.6 2.734A9.333 9.333 0 000 9.331V11.8a8.116 8.116 0 005.017 7.507 8.128 8.128 0 003.11.617H27.99l-1.44 5.146a4.539 4.539 0 01-1.816 2.528l1.194 2.447h-1.485l-1.938-1.662c-.119 0-.237.028-.36.028h-9.14a4.544 4.544 0 01-.553-.041l-1.953 1.674h-1.48l1.253-2.55a4.539 4.539 0 01-1.521-1.979 4.948 4.948 0 00-4.604-3.131H0v3.458a9.782 9.782 0 006.043 9.04 9.793 9.793 0 003.747.745h14.53a10.413 10.413 0 009.631-6.417c.524-1.264.794-2.618.794-3.985v-6.527a9.01 9.01 0 00-5.569-8.332 9.022 9.022 0 00-3.453-.686h-5.744l.677 2.964h-8.491l.908-2.964a3.344 3.344 0 013.242-2.482z" fill="#000"/><path d="M12.165 12.645h1.103v7.266h-1.103v-7.267zm2.465 0h1.104v7.266H14.63v-7.267zm2.466 0h1.103v7.266h-1.103v-7.267zm2.465 0h1.104v7.266H19.56v-7.267z" fill="#22CBFF"/><path d="M22.953 27.308s1.326-.072 2.066-1.965c.488-1.484.874-3 1.154-4.538h-1.58l-1.64 6.503z" fill="#000"/></g><defs><clipPath id="clip0_147_1001"><path fill="#fff" d="M0 0h181.373v50H0z"/></clipPath></defs></svg>